<svg xmlns="http://www.w3.org/2000/svg" width="24" height="24" viewBox="0 0 24 24" fill="currentColor"><path d="M12 2C6.48 2 2 6.48 2 12s4.48 10 10 10 10-4.48 10-10S17.52 2 12 2zm4.19 14.32c-.24.36-.7.48-1.06.24-2.9-1.77-6.52-2.16-10.82-1.19-.42.09-.84-.18-.94-.6-.09-.42.18-.84.6-.94C9.2 12.9 13.22 13.34 16.5 15.3c.36.23.48.7.24 1.02zm.68-2.52c-.29.44-.86.59-1.3.3-3.22-1.97-8.14-2.54-11.92-1.38-.5.15-.99-.15-1.14-.65s.15-.99.65-1.14c4.32-1.28 9.75-.64 13.44 1.55.44.29.59.86.3 1.3zm.1-2.7c-.34.53-1.02.7-1.55.36-3.75-2.28-9.94-2.43-13.82-1.35-.59.15-1.2-.15-1.35-.74-.15-.59.15-1.2.74-1.35 4.4-.96 11.1-1.08 15.48 1.5.53.34.7 1.02.36 1.55z"/></svg>